<?xml version="1.0" encoding="UTF-8" standalone="no"?>
<!DOCTYPE svg PUBLIC "-//W3C//DTD SVG 1.1//EN" "http://www.w3.org/Graphics/SVG/1.1/DTD/svg11.dtd">
<svg xmlns="http://www.w3.org/2000/svg" xmlns:xlink="http://www.w3.org/1999/xlink" version="1.1" width="568.4pt" height="256.40003pt" viewBox="0 0 568.4 256.40003">
<g enable-background="new">
<path transform="matrix(1,0,0,-1,-7.8,776.2)" d="M 8 776 L 8 520 L 576 520 L 576 776 Z " fill="#dbdbdb" fill-rule="evenodd"/>
<path transform="matrix(1,0,0,-1,-7.8,776.2)" stroke-width=".4" stroke-linecap="butt" stroke-linejoin="round" fill="none" stroke="#dbdbdb" d="M 8 776 L 8 520 L 576 520 L 576 776 Z "/>
<path transform="matrix(1,0,0,-1,-7.8,776.2)" d="M 104 624 L 144 568 " fill="#90ee90" fill-rule="evenodd"/>
<path transform="matrix(1,0,0,-1,-7.8,776.2)" stroke-width="2" stroke-linecap="butt" stroke-linejoin="round" fill="none" stroke="#000000" d="M 104 624 L 144 568 "/>
<path transform="matrix(1,0,0,-1,-7.8,776.2)" d="M 144 568 L 141.828 575.051 L 138.035 572.341 Z " fill-rule="evenodd"/>
<path transform="matrix(1,0,0,-1,-7.8,776.2)" stroke-width="2" stroke-linecap="butt" stroke-linejoin="round" fill="none" stroke="#000000" d="M 144 568 L 141.828 575.051 L 138.035 572.341 Z "/>
<path transform="matrix(1,0,0,-1,-7.8,776.2)" d="M 104 624 L 72 568 " fill="#90ee90" fill-rule="evenodd"/>
<path transform="matrix(1,0,0,-1,-7.8,776.2)" stroke-width="2" stroke-linecap="butt" stroke-linejoin="round" fill="none" stroke="#000000" d="M 104 624 L 72 568 "/>
<path transform="matrix(1,0,0,-1,-7.8,776.2)" d="M 72 568 L 77.4968 572.921 L 73.4491 575.234 Z " fill-rule="evenodd"/>
<path transform="matrix(1,0,0,-1,-7.8,776.2)" stroke-width="2" stroke-linecap="butt" stroke-linejoin="round" fill="none" stroke="#000000" d="M 72 568 L 77.4968 572.921 L 73.4491 575.234 Z "/>
<path transform="matrix(1,0,0,-1,-7.8,776.2)" d="M 104 624 L 40 568 " fill="#90ee90" fill-rule="evenodd"/>
<path transform="matrix(1,0,0,-1,-7.8,776.2)" stroke-width="2" stroke-linecap="butt" stroke-linejoin="round" fill="none" stroke="#000000" d="M 104 624 L 40 568 "/>
<path transform="matrix(1,0,0,-1,-7.8,776.2)" d="M 40 568 L 46.803 570.855 L 43.7331 574.364 Z " fill-rule="evenodd"/>
<path transform="matrix(1,0,0,-1,-7.8,776.2)" stroke-width="2" stroke-linecap="butt" stroke-linejoin="round" fill="none" stroke="#000000" d="M 40 568 L 46.803 570.855 L 43.7331 574.364 Z "/>
<path transform="matrix(1,0,0,-1,-7.8,776.2)" d="M 288 728 L 472 656 " fill="#90ee90" fill-rule="evenodd"/>
<path transform="matrix(1,0,0,-1,-7.8,776.2)" stroke-width="2" stroke-linecap="butt" stroke-linejoin="round" fill="none" stroke="#000000" d="M 288 728 L 472 656 "/>
<path transform="matrix(1,0,0,-1,-7.8,776.2)" d="M 472 656 L 466.331 660.722 L 464.632 656.38 Z " fill-rule="evenodd"/>
<path transform="matrix(1,0,0,-1,-7.8,776.2)" stroke-width="2" stroke-linecap="butt" stroke-linejoin="round" fill="none" stroke="#000000" d="M 472 656 L 466.331 660.722 L 464.632 656.38 Z "/>
<path transform="matrix(1,0,0,-1,-7.8,776.2)" d="M 288 728 L 240 656 " fill="#90ee90" fill-rule="evenodd"/>
<path transform="matrix(1,0,0,-1,-7.8,776.2)" stroke-width="2" stroke-linecap="butt" stroke-linejoin="round" fill="none" stroke="#000000" d="M 288 728 L 240 656 "/>
<path transform="matrix(1,0,0,-1,-7.8,776.2)" d="M 240 656 L 245.822 660.531 L 241.943 663.117 Z " fill-rule="evenodd"/>
<path transform="matrix(1,0,0,-1,-7.8,776.2)" stroke-width="2" stroke-linecap="butt" stroke-linejoin="round" fill="none" stroke="#000000" d="M 240 656 L 245.822 660.531 L 241.943 663.117 Z "/>
<path transform="matrix(1,0,0,-1,-7.8,776.2)" d="M 288 728 L 104 656 " fill="#90ee90" fill-rule="evenodd"/>
<path transform="matrix(1,0,0,-1,-7.8,776.2)" stroke-width="2" stroke-linecap="butt" stroke-linejoin="round" fill="none" stroke="#000000" d="M 288 728 L 104 656 "/>
<path transform="matrix(1,0,0,-1,-7.8,776.2)" d="M 104 656 L 111.368 656.38 L 109.669 660.722 Z " fill-rule="evenodd"/>
<path transform="matrix(1,0,0,-1,-7.8,776.2)" stroke-width="2" stroke-linecap="butt" stroke-linejoin="round" fill="none" stroke="#000000" d="M 104 656 L 111.368 656.38 L 109.669 660.722 Z "/>
<path transform="matrix(1,0,0,-1,-7.8,776.2)" d="M 224 768 L 224 704 L 352 704 L 352 768 Z " fill="#e0ffff" fill-rule="evenodd"/>
<path transform="matrix(1,0,0,-1,-7.8,776.2)" stroke-width="2" stroke-linecap="butt" stroke-linejoin="round" fill="none" stroke="#000000" d="M 224 768 L 224 704 L 352 704 L 352 768 Z "/>
<clipPath id="cp0">
<path transform="matrix(1,0,0,-1,232.2,48.200014)" d="M -1 -1 L 101.081 -1 L 101.081 18.213 L -1 18.213 Z "/>
</clipPath>
<g clip-path="url(#cp0)">
<text xml:space="preserve" transform="matrix(1 0 -0 1 232.2 822.987)" font-size="24.7871" font-family="CMR17"><tspan y="-774.787" x="0 16.557784 27.935063 39.956808 48.731439 57.506074 68.883358 75.08013 81.27691 91.34047">Controller</tspan></text>
</g>
<path transform="matrix(1,0,0,-1,-7.8,776.2)" d="M 64 648 L 64 608 L 144 608 L 144 648 Z " fill="#ffffe0" fill-rule="evenodd"/>
<path transform="matrix(1,0,0,-1,-7.8,776.2)" stroke-width="2" stroke-linecap="butt" stroke-linejoin="round" fill="none" stroke="#000000" d="M 64 648 L 64 608 L 144 608 L 144 648 Z "/>
<clipPath id="cp1">
<path transform="matrix(1,0,0,-1,70.2882,155.54999)" d="M -1 -1 L 55.361 -1 L 55.361 16.11 L -1 16.11 Z "/>
</clipPath>
<g clip-path="url(#cp1)">
<text xml:space="preserve" transform="matrix(1 0 -0 1 70.2882 932.44)" font-size="17.2154" font-family="CMR17"><tspan y="-780.239" x="0 11.930273 19.832142 26.821595 35.171064 46.464368">Agent1</tspan></text>
</g>
<path transform="matrix(1,0,0,-1,-7.8,776.2)" d="M 200 648 L 200 608 L 280 608 L 280 648 Z " fill="#ffffe0" fill-rule="evenodd"/>
<path transform="matrix(1,0,0,-1,-7.8,776.2)" stroke-width="2" stroke-linecap="butt" stroke-linejoin="round" fill="none" stroke="#000000" d="M 200 648 L 200 608 L 280 608 L 280 648 Z "/>
<clipPath id="cp2">
<path transform="matrix(1,0,0,-1,206.288,155.54999)" d="M -1 -1 L 55.361 -1 L 55.361 16.11 L -1 16.11 Z "/>
</clipPath>
<g clip-path="url(#cp2)">
<text xml:space="preserve" transform="matrix(1 0 -0 1 206.288 932.44)" font-size="17.2154" font-family="CMR17"><tspan y="-780.239" x="0 11.930273 19.832142 26.821595 35.171064 46.464368">Agent2</tspan></text>
</g>
<path transform="matrix(1,0,0,-1,-7.8,776.2)" d="M 432 648 L 432 608 L 512 608 L 512 648 Z " fill="#ffffe0" fill-rule="evenodd"/>
<path transform="matrix(1,0,0,-1,-7.8,776.2)" stroke-width="2" stroke-linecap="butt" stroke-linejoin="round" fill="none" stroke="#000000" d="M 432 648 L 432 608 L 512 608 L 512 648 Z "/>
<clipPath id="cp3">
<path transform="matrix(1,0,0,-1,438.28804,155.54999)" d="M -1 -1 L 59.401 -1 L 59.401 16.11 L -1 16.11 Z "/>
</clipPath>
<g clip-path="url(#cp3)">
<text xml:space="preserve" transform="matrix(1 0 -0 1 438.28804 932.44)" font-size="17.2154" font-family="CMR17"><tspan y="-780.239" x="0 11.930273 19.832142 26.821595 35.171064 46.464368">AgentN</tspan></text>
</g>
<path transform="matrix(1,0,0,-1,-7.8,776.2)" d="M 353.8 632 C 353.8 632.994 352.994 633.8 352 633.8 C 351.006 633.8 350.2 632.994 350.2 632 C 350.2 631.006 351.006 630.2 352 630.2 C 352.994 630.2 353.8 631.006 353.8 632 " fill-rule="evenodd"/>
<path transform="matrix(1,0,0,-1,-7.8,776.2)" d="M 361.8 632 C 361.8 632.994 360.994 633.8 360 633.8 C 359.006 633.8 358.2 632.994 358.2 632 C 358.2 631.006 359.006 630.2 360 630.2 C 360.994 630.2 361.8 631.006 361.8 632 " fill-rule="evenodd"/>
<path transform="matrix(1,0,0,-1,-7.8,776.2)" d="M 369.8 632 C 369.8 632.994 368.994 633.8 368 633.8 C 367.006 633.8 366.2 632.994 366.2 632 C 366.2 631.006 367.006 630.2 368 630.2 C 368.994 630.2 369.8 631.006 369.8 632 " fill-rule="evenodd"/>
<path transform="matrix(1,0,0,-1,-7.8,776.2)" d="M 48 544 C 48 552.837 40.8366 560 32 560 C 23.1634 560 16 552.837 16 544 C 16 535.163 23.1634 528 32 528 C 40.8366 528 48 535.163 48 544 " fill="#90ee90" fill-rule="evenodd"/>
<path transform="matrix(1,0,0,-1,-7.8,776.2)" stroke-width="2" stroke-linecap="butt" stroke-linejoin="round" fill="none" stroke="#000000" d="M 48 544 C 48 552.837 40.8366 560 32 560 C 23.1634 560 16 552.837 16 544 C 16 535.163 23.1634 528 32 528 C 40.8366 528 48 535.163 48 544 "/>
<path transform="matrix(1,0,0,-1,-7.8,776.2)" d="M 88 544 C 88 552.837 80.8366 560 72 560 C 63.1634 560 56 552.837 56 544 C 56 535.163 63.1634 528 72 528 C 80.8366 528 88 535.163 88 544 " fill="#90ee90" fill-rule="evenodd"/>
<path transform="matrix(1,0,0,-1,-7.8,776.2)" stroke-width="2" stroke-linecap="butt" stroke-linejoin="round" fill="none" stroke="#000000" d="M 88 544 C 88 552.837 80.8366 560 72 560 C 63.1634 560 56 552.837 56 544 C 56 535.163 63.1634 528 72 528 C 80.8366 528 88 535.163 88 544 "/>
<path transform="matrix(1,0,0,-1,-7.8,776.2)" d="M 160 544 C 160 552.837 152.837 560 144 560 C 135.163 560 128 552.837 128 544 C 128 535.163 135.163 528 144 528 C 152.837 528 160 535.163 160 544 " fill="#90ee90" fill-rule="evenodd"/>
<path transform="matrix(1,0,0,-1,-7.8,776.2)" stroke-width="2" stroke-linecap="butt" stroke-linejoin="round" fill="none" stroke="#000000" d="M 160 544 C 160 552.837 152.837 560 144 560 C 135.163 560 128 552.837 128 544 C 128 535.163 135.163 528 144 528 C 152.837 528 160 535.163 160 544 "/>
<clipPath id="cp4">
<path transform="matrix(1,0,0,-1,12.174199,235.50702)" d="M -1 -1 L 26.045 -1 L 26.045 7.808 L -1 7.808 Z "/>
</clipPath>
<g clip-path="url(#cp4)">
<text xml:space="preserve" transform="matrix(1 0 -0 1 12.174199 1020.69906)" font-size="9.9626" font-family="CMR10"><tspan y="-785.192" x="0 7.611427 20.064679">DM1</tspan></text>
</g>
<clipPath id="cp5">
<path transform="matrix(1,0,0,-1,51.7257,236.07703)" d="M -1 -1 L 26.045 -1 L 26.045 7.808 L -1 7.808 Z "/>
</clipPath>
<g clip-path="url(#cp5)">
<text xml:space="preserve" transform="matrix(1 0 -0 1 51.7257 1021.26907)" font-size="9.9626" font-family="CMR10"><tspan y="-785.192" x="0 7.611427 20.064679">DM2</tspan></text>
</g>
<clipPath id="cp6">
<path transform="matrix(1,0,0,-1,121.81099,235.24799)" d="M -1 -1 L 29.366 -1 L 29.366 7.808 L -1 7.808 Z "/>
</clipPath>
<g clip-path="url(#cp6)">
<text xml:space="preserve" transform="matrix(1 0 -0 1 121.81099 1020.44)" font-size="9.9626" font-family="CMR10"><tspan y="-785.192" x="0 7.611427 20.064679">DMm</tspan></text>
</g>
<path transform="matrix(1,0,0,-1,-7.8,776.2)" d="M 100.35 544 C 100.35 544.994 99.544 545.8 98.5499 545.8 C 97.5558 545.8 96.7499 544.994 96.7499 544 C 96.7499 543.006 97.5558 542.2 98.5499 542.2 C 99.544 542.2 100.35 543.006 100.35 544 " fill-rule="evenodd"/>
<path transform="matrix(1,0,0,-1,-7.8,776.2)" d="M 108.35 544 C 108.35 544.994 107.544 545.8 106.55 545.8 C 105.556 545.8 104.75 544.994 104.75 544 C 104.75 543.006 105.556 542.2 106.55 542.2 C 107.544 542.2 108.35 543.006 108.35 544 " fill-rule="evenodd"/>
<path transform="matrix(1,0,0,-1,-7.8,776.2)" d="M 116.35 544 C 116.35 544.994 115.544 545.8 114.55 545.8 C 113.556 545.8 112.75 544.994 112.75 544 C 112.75 543.006 113.556 542.2 114.55 542.2 C 115.544 542.2 116.35 543.006 116.35 544 " fill-rule="evenodd"/>
<path transform="matrix(1,0,0,-1,-7.8,776.2)" d="M 152 624 L 192 624 " fill="#90ee90" fill-rule="evenodd"/>
<path transform="matrix(1,0,0,-1,-7.8,776.2)" stroke-width="2" stroke-linecap="butt" stroke-linejoin="round" fill="none" stroke="#ff0000" d="M 152 624 L 192 624 "/>
<path transform="matrix(1,0,0,-1,-7.8,776.2)" d="M 192 624 L 185 626.331 L 185 621.669 Z " fill="#ff0000" fill-rule="evenodd"/>
<path transform="matrix(1,0,0,-1,-7.8,776.2)" stroke-width="2" stroke-linecap="butt" stroke-linejoin="round" fill="none" stroke="#ff0000" d="M 192 624 L 185 626.331 L 185 621.669 Z "/>
<path transform="matrix(1,0,0,-1,-7.8,776.2)" d="M 288 624 L 328 624 " fill="#90ee90" fill-rule="evenodd"/>
<path transform="matrix(1,0,0,-1,-7.8,776.2)" stroke-width="2" stroke-linecap="butt" stroke-linejoin="round" fill="none" stroke="#ff0000" d="M 288 624 L 328 624 "/>
<path transform="matrix(1,0,0,-1,-7.8,776.2)" d="M 328 624 L 321 626.331 L 321 621.669 Z " fill="#ff0000" fill-rule="evenodd"/>
<path transform="matrix(1,0,0,-1,-7.8,776.2)" stroke-width="2" stroke-linecap="butt" stroke-linejoin="round" fill="none" stroke="#ff0000" d="M 328 624 L 321 626.331 L 321 621.669 Z "/>
<path transform="matrix(1,0,0,-1,-7.8,776.2)" d="M 384 624 L 424 624 " fill="#90ee90" fill-rule="evenodd"/>
<path transform="matrix(1,0,0,-1,-7.8,776.2)" stroke-width="2" stroke-linecap="butt" stroke-linejoin="round" fill="none" stroke="#ff0000" d="M 384 624 L 424 624 "/>
<path transform="matrix(1,0,0,-1,-7.8,776.2)" d="M 424 624 L 417 626.331 L 417 621.669 Z " fill="#ff0000" fill-rule="evenodd"/>
<path transform="matrix(1,0,0,-1,-7.8,776.2)" stroke-width="2" stroke-linecap="butt" stroke-linejoin="round" fill="none" stroke="#ff0000" d="M 424 624 L 417 626.331 L 417 621.669 Z "/>
<clipPath id="cp7">
<path transform="matrix(1,0,0,-1,152.2,146.35004)" d="M -1 -1 L 18.767 -1 L 18.767 9.329 L -1 9.329 Z "/>
</clipPath>
<g clip-path="url(#cp7)">
<text fill="#ff0000" xml:space="preserve" transform="matrix(1 0 -0 1 152.2 930.02108)" font-size="14.3462" font-family="CMMI12" font-style="italic"><tspan y="-785.823" x="0">m</tspan></text>
<text fill="#ff0000" xml:space="preserve" transform="matrix(1 0 -0 1 152.2 930.02108)" font-size="9.9626" font-family="CMR10"><tspan y="-783.671" x="12.287">1</tspan></text>
</g>
<clipPath id="cp8">
<path transform="matrix(1,0,0,-1,288.2,146.35004)" d="M -1 -1 L 18.767 -1 L 18.767 9.329 L -1 9.329 Z "/>
</clipPath>
<g clip-path="url(#cp8)">
<text fill="#ff0000" xml:space="preserve" transform="matrix(1 0 -0 1 288.2 930.02108)" font-size="14.3462" font-family="CMMI12" font-style="italic"><tspan y="-785.823" x="0">m</tspan></text>
<text fill="#ff0000" xml:space="preserve" transform="matrix(1 0 -0 1 288.2 930.02108)" font-size="9.9626" font-family="CMR10"><tspan y="-783.671" x="12.287">2</tspan></text>
</g>
<clipPath id="cp9">
<path transform="matrix(1,0,0,-1,384.2,147.18)" d="M -1 -1 L 35.606 -1 L 35.606 10.159 L -1 10.159 Z "/>
</clipPath>
<g clip-path="url(#cp9)">
<text fill="#ff0000" xml:space="preserve" transform="matrix(1 0 -0 1 384.2 930.021)" font-size="14.3462" font-family="CMMI12" font-style="italic"><tspan y="-785.823" x="0">m</tspan></text>
<text fill="#ff0000" xml:space="preserve" transform="matrix(1 0 -0 1 384.2 930.021)" font-size="9.9626" font-family="CMMI10" font-style="italic"><tspan y="-783.671" x="12.287">N</tspan></text>
<text fill="#ff0000" xml:space="preserve" transform="matrix(1 0 -0 1 384.2 930.021)" font-size="9.9626" font-family="CMSY10" font-style="italic"><tspan y="-783.671" x="21.377999">&#x2212;</tspan></text>
<text fill="#ff0000" xml:space="preserve" transform="matrix(1 0 -0 1 384.2 930.021)" font-size="9.9626" font-family="CMR10"><tspan y="-783.671" x="29.126999">1</tspan></text>
</g>
<path transform="matrix(1,0,0,-1,-7.8,776.2)" d="M 228.35 544 C 228.35 544.994 227.544 545.8 226.55 545.8 C 225.556 545.8 224.75 544.994 224.75 544 C 224.75 543.006 225.556 542.2 226.55 542.2 C 227.544 542.2 228.35 543.006 228.35 544 " fill-rule="evenodd"/>
<path transform="matrix(1,0,0,-1,-7.8,776.2)" d="M 236.35 544 C 236.35 544.994 235.544 545.8 234.55 545.8 C 233.556 545.8 232.75 544.994 232.75 544 C 232.75 543.006 233.556 542.2 234.55 542.2 C 235.544 542.2 236.35 543.006 236.35 544 " fill-rule="evenodd"/>
<path transform="matrix(1,0,0,-1,-7.8,776.2)" d="M 244.35 544 C 244.35 544.994 243.544 545.8 242.55 545.8 C 241.556 545.8 240.75 544.994 240.75 544 C 240.75 543.006 241.556 542.2 242.55 542.2 C 243.544 542.2 244.35 543.006 244.35 544 " fill-rule="evenodd"/>
</g>
</svg>
