<?xml version="1.0" encoding="UTF-8" standalone="no"?>
<!DOCTYPE svg PUBLIC "-//W3C//DTD SVG 1.1//EN" "http://www.w3.org/Graphics/SVG/1.1/DTD/svg11.dtd">
<svg xmlns="http://www.w3.org/2000/svg" xmlns:xlink="http://www.w3.org/1999/xlink" version="1.1" width="1472.3999pt" height="896.3999pt" viewBox="0 0 1472.3999 896.3999">
<g enable-background="new">
<path transform="matrix(1,0,0,-1,-1855.8,2396.2)" d="M 1856 2396 L 1856 1500 L 3328 1500 L 3328 2396 Z " fill="#fafac8" fill-rule="evenodd"/>
<path transform="matrix(1,0,0,-1,-1855.8,2396.2)" d="M 1856 1820 L 1856 1500 L 3328 1500 L 3328 1820 Z " fill="#fae1fa" fill-rule="evenodd"/>
<path transform="matrix(1,0,0,-1,-1855.8,2396.2)" d="M 1856 2223.26 L 1856 1852 L 3326.07 1852 L 3326.07 2223.26 Z " fill="#fafac8" fill-rule="evenodd"/>
<path transform="matrix(1,0,0,-1,-1855.8,2396.2)" stroke-width="2" stroke-linecap="butt" stroke-linejoin="round" fill="none" stroke="#000000" d="M 3248 1892 L 3248 1776 "/>
<path transform="matrix(1,0,0,-1,-1855.8,2396.2)" stroke-width="2" stroke-linecap="butt" stroke-linejoin="round" fill="none" stroke="#000000" d="M 3248 2184 L 3248 1988 "/>
<path transform="matrix(1,0,0,-1,-1855.8,2396.2)" stroke-width="2" stroke-linecap="butt" stroke-linejoin="round" fill="none" stroke="#000000" d="M 2648 1888 L 2648 1776 "/>
<path transform="matrix(1,0,0,-1,-1855.8,2396.2)" stroke-width="2" stroke-linecap="butt" stroke-linejoin="round" fill="none" stroke="#000000" d="M 2168 1884 L 2168 1772 "/>
<path transform="matrix(1,0,0,-1,-1855.8,2396.2)" stroke-width="2" stroke-linecap="butt" stroke-linejoin="round" fill="none" stroke="#000000" d="M 2648 2184 L 2648 1988 "/>
<path transform="matrix(1,0,0,-1,-1855.8,2396.2)" stroke-width="2" stroke-linecap="butt" stroke-linejoin="round" fill="none" stroke="#000000" d="M 2168 2184 L 2168 1984 "/>
<path transform="matrix(1,0,0,-1,-1855.8,2396.2)" stroke-width="2" stroke-linecap="butt" stroke-linejoin="round" fill="none" stroke="#000000" d="M 3248 1776 L 3004 1672 "/>
<path transform="matrix(1,0,0,-1,-1855.8,2396.2)" stroke-width="2" stroke-linecap="butt" stroke-linejoin="round" fill="none" stroke="#000000" d="M 3248 1776 L 3088 1672 "/>
<path transform="matrix(1,0,0,-1,-1855.8,2396.2)" stroke-width="2" stroke-linecap="butt" stroke-linejoin="round" fill="none" stroke="#000000" d="M 3248 1776 L 3168 1672 "/>
<path transform="matrix(1,0,0,-1,-1855.8,2396.2)" stroke-width="2" stroke-linecap="butt" stroke-linejoin="round" fill="none" stroke="#000000" d="M 3248 1776 L 3248 1672 "/>
<path transform="matrix(1,0,0,-1,-1855.8,2396.2)" stroke-width="2" stroke-linecap="butt" stroke-linejoin="round" fill="none" stroke="#000000" d="M 2648 1776 L 2768 1652 "/>
<path transform="matrix(1,0,0,-1,-1855.8,2396.2)" stroke-width="2" stroke-linecap="butt" stroke-linejoin="round" fill="none" stroke="#000000" d="M 2648 1776 L 2688 1652 "/>
<path transform="matrix(1,0,0,-1,-1855.8,2396.2)" stroke-width="2" stroke-linecap="butt" stroke-linejoin="round" fill="none" stroke="#000000" d="M 2648 1776 L 2608 1652 "/>
<path transform="matrix(1,0,0,-1,-1855.8,2396.2)" stroke-width="2" stroke-linecap="butt" stroke-linejoin="round" fill="none" stroke="#000000" d="M 2648 1780 L 2528 1652 "/>
<path transform="matrix(1,0,0,-1,-1855.8,2396.2)" stroke-width="2" stroke-linecap="butt" stroke-linejoin="round" fill="none" stroke="#000000" d="M 2168 1772 L 2288 1648 "/>
<path transform="matrix(1,0,0,-1,-1855.8,2396.2)" stroke-width="2" stroke-linecap="butt" stroke-linejoin="round" fill="none" stroke="#000000" d="M 2168 1772 L 2208 1648 "/>
<path transform="matrix(1,0,0,-1,-1855.8,2396.2)" stroke-width="2" stroke-linecap="butt" stroke-linejoin="round" fill="none" stroke="#000000" d="M 2168 1772 L 2128 1648 "/>
<path transform="matrix(1,0,0,-1,-1855.8,2396.2)" stroke-width="2" stroke-linecap="butt" stroke-linejoin="round" fill="none" stroke="#000000" d="M 2168 1776 L 2048 1648 "/>
<path transform="matrix(1,0,0,-1,-1855.8,2396.2)" stroke-width="2" stroke-linecap="butt" stroke-linejoin="round" fill="none" stroke="#000000" d="M 2048 1648 L 1956 1548 "/>
<path transform="matrix(1,0,0,-1,-1855.8,2396.2)" stroke-width="2" stroke-linecap="butt" stroke-linejoin="round" fill="none" stroke="#000000" d="M 2048 1648 L 2036 1548 "/>
<path transform="matrix(1,0,0,-1,-1855.8,2396.2)" stroke-width="2" stroke-linecap="butt" stroke-linejoin="round" fill="none" stroke="#000000" d="M 2048 1644 L 2116 1548 "/>
<path transform="matrix(1,0,0,-1,-1855.8,2396.2)" stroke-width="2" stroke-linecap="butt" stroke-linejoin="round" fill="none" stroke="#000000" d="M 2048 1648 L 2196 1548 "/>
<path transform="matrix(1,0,0,-1,-1855.8,2396.2)" d="M 1856 2396 L 1856 2252 L 3328 2252 L 3328 2396 Z " fill="#fae1fa" fill-rule="evenodd"/>
<path transform="matrix(1,0,0,-1,-1855.8,2396.2)" stroke-width="2" stroke-linecap="butt" stroke-linejoin="round" fill="none" stroke="#000000" d="M 2648 1932 L 2648 1888 "/>
<path transform="matrix(1,0,0,-1,-1855.8,2396.2)" stroke-width="2" stroke-linecap="butt" stroke-linejoin="round" fill="none" stroke="#000000" d="M 3248 1932 L 3248 1888 "/>
<path transform="matrix(1,0,0,-1,-1855.8,2396.2)" d="M 3252 1972 C 3252 1974.21 3250.21 1976 3248 1976 C 3245.79 1976 3244 1974.21 3244 1972 C 3244 1969.79 3245.79 1968 3248 1968 C 3250.21 1968 3252 1969.79 3252 1972 " fill-rule="evenodd"/>
<path transform="matrix(1,0,0,-1,-1855.8,2396.2)" d="M 3252 1960 C 3252 1962.21 3250.21 1964 3248 1964 C 3245.79 1964 3244 1962.21 3244 1960 C 3244 1957.79 3245.79 1956 3248 1956 C 3250.21 1956 3252 1957.79 3252 1960 " fill-rule="evenodd"/>
<path transform="matrix(1,0,0,-1,-1855.8,2396.2)" d="M 3252 1948 C 3252 1950.21 3250.21 1952 3248 1952 C 3245.79 1952 3244 1950.21 3244 1948 C 3244 1945.79 3245.79 1944 3248 1944 C 3250.21 1944 3252 1945.79 3252 1948 " fill-rule="evenodd"/>
<path transform="matrix(1,0,0,-1,-1855.8,2396.2)" stroke-width="2" stroke-linecap="butt" stroke-linejoin="round" fill="none" stroke="#000000" d="M 2168 1928 L 2168 1884 "/>
<path transform="matrix(1,0,0,-1,-1855.8,2396.2)" d="M 2984 2280 L 3248 2184 " fill="#99ffdd" fill-rule="evenodd"/>
<path transform="matrix(1,0,0,-1,-1855.8,2396.2)" stroke-width="2" stroke-linecap="butt" stroke-linejoin="round" fill="none" stroke="#000000" d="M 2984 2280 L 3248 2184 "/>
<path transform="matrix(1,0,0,-1,-1855.8,2396.2)" d="M 2984 2280 L 3168 2184 " fill="#99ffdd" fill-rule="evenodd"/>
<path transform="matrix(1,0,0,-1,-1855.8,2396.2)" stroke-width="2" stroke-linecap="butt" stroke-linejoin="round" fill="none" stroke="#000000" d="M 2984 2280 L 3168 2184 "/>
<path transform="matrix(1,0,0,-1,-1855.8,2396.2)" d="M 2984 2280 L 3088 2184 " fill="#99ffdd" fill-rule="evenodd"/>
<path transform="matrix(1,0,0,-1,-1855.8,2396.2)" stroke-width="2" stroke-linecap="butt" stroke-linejoin="round" fill="none" stroke="#000000" d="M 2984 2280 L 3088 2184 "/>
<path transform="matrix(1,0,0,-1,-1855.8,2396.2)" d="M 2984 2280 L 3008 2184 " fill="#99ffdd" fill-rule="evenodd"/>
<path transform="matrix(1,0,0,-1,-1855.8,2396.2)" stroke-width="2" stroke-linecap="butt" stroke-linejoin="round" fill="none" stroke="#000000" d="M 2984 2280 L 3008 2184 "/>
<path transform="matrix(1,0,0,-1,-1855.8,2396.2)" d="M 2704 2289.88 L 2888 2184 " fill="#99ffdd" fill-rule="evenodd"/>
<path transform="matrix(1,0,0,-1,-1855.8,2396.2)" stroke-width="2" stroke-linecap="butt" stroke-linejoin="round" fill="none" stroke="#000000" d="M 2704 2289.88 L 2888 2184 "/>
<path transform="matrix(1,0,0,-1,-1855.8,2396.2)" d="M 2704 2289.88 L 2808 2184 " fill="#99ffdd" fill-rule="evenodd"/>
<path transform="matrix(1,0,0,-1,-1855.8,2396.2)" stroke-width="2" stroke-linecap="butt" stroke-linejoin="round" fill="none" stroke="#000000" d="M 2704 2289.88 L 2808 2184 "/>
<path transform="matrix(1,0,0,-1,-1855.8,2396.2)" d="M 2704 2289.88 L 2728 2184 " fill="#99ffdd" fill-rule="evenodd"/>
<path transform="matrix(1,0,0,-1,-1855.8,2396.2)" stroke-width="2" stroke-linecap="butt" stroke-linejoin="round" fill="none" stroke="#000000" d="M 2704 2289.88 L 2728 2184 "/>
<path transform="matrix(1,0,0,-1,-1855.8,2396.2)" d="M 2704 2289.88 L 2648 2184 " fill="#99ffdd" fill-rule="evenodd"/>
<path transform="matrix(1,0,0,-1,-1855.8,2396.2)" stroke-width="2" stroke-linecap="butt" stroke-linejoin="round" fill="none" stroke="#000000" d="M 2704 2289.88 L 2648 2184 "/>
<path transform="matrix(1,0,0,-1,-1855.8,2396.2)" d="M 2464 2289.88 L 2536 2184 " fill="#99ffdd" fill-rule="evenodd"/>
<path transform="matrix(1,0,0,-1,-1855.8,2396.2)" stroke-width="2" stroke-linecap="butt" stroke-linejoin="round" fill="none" stroke="#000000" d="M 2464 2289.88 L 2536 2184 "/>
<path transform="matrix(1,0,0,-1,-1855.8,2396.2)" d="M 2464 2289.88 L 2456 2184 " fill="#99ffdd" fill-rule="evenodd"/>
<path transform="matrix(1,0,0,-1,-1855.8,2396.2)" stroke-width="2" stroke-linecap="butt" stroke-linejoin="round" fill="none" stroke="#000000" d="M 2464 2289.88 L 2456 2184 "/>
<path transform="matrix(1,0,0,-1,-1855.8,2396.2)" d="M 2464 2289.88 L 2376 2184 " fill="#99ffdd" fill-rule="evenodd"/>
<path transform="matrix(1,0,0,-1,-1855.8,2396.2)" stroke-width="2" stroke-linecap="butt" stroke-linejoin="round" fill="none" stroke="#000000" d="M 2464 2289.88 L 2376 2184 "/>
<path transform="matrix(1,0,0,-1,-1855.8,2396.2)" d="M 2464 2289.88 L 2296 2184 " fill="#99ffdd" fill-rule="evenodd"/>
<path transform="matrix(1,0,0,-1,-1855.8,2396.2)" stroke-width="2" stroke-linecap="butt" stroke-linejoin="round" fill="none" stroke="#000000" d="M 2464 2289.88 L 2296 2184 "/>
<path transform="matrix(1,0,0,-1,-1855.8,2396.2)" d="M 2184 2285.65 L 1928 2184 " fill="#99ffdd" fill-rule="evenodd"/>
<path transform="matrix(1,0,0,-1,-1855.8,2396.2)" stroke-width="2" stroke-linecap="butt" stroke-linejoin="round" fill="none" stroke="#000000" d="M 2184 2285.65 L 1928 2184 "/>
<path transform="matrix(1,0,0,-1,-1855.8,2396.2)" d="M 2184 2285.65 L 2008 2184 " fill="#99ffdd" fill-rule="evenodd"/>
<path transform="matrix(1,0,0,-1,-1855.8,2396.2)" stroke-width="2" stroke-linecap="butt" stroke-linejoin="round" fill="none" stroke="#000000" d="M 2184 2285.65 L 2008 2184 "/>
<path transform="matrix(1,0,0,-1,-1855.8,2396.2)" d="M 2184 2285.65 L 2088 2184 " fill="#99ffdd" fill-rule="evenodd"/>
<path transform="matrix(1,0,0,-1,-1855.8,2396.2)" stroke-width="2" stroke-linecap="butt" stroke-linejoin="round" fill="none" stroke="#000000" d="M 2184 2285.65 L 2088 2184 "/>
<path transform="matrix(1,0,0,-1,-1855.8,2396.2)" d="M 2184 2285.65 L 2168 2184 " fill="#99ffdd" fill-rule="evenodd"/>
<path transform="matrix(1,0,0,-1,-1855.8,2396.2)" stroke-width="2" stroke-linecap="butt" stroke-linejoin="round" fill="none" stroke="#000000" d="M 2184 2285.65 L 2168 2184 "/>
<path transform="matrix(1,0,0,-1,-1855.8,2396.2)" d="M 2592 2348 L 2984 2284 " fill="#99ffdd" fill-rule="evenodd"/>
<path transform="matrix(1,0,0,-1,-1855.8,2396.2)" stroke-width="2" stroke-linecap="butt" stroke-linejoin="round" fill="none" stroke="#000000" d="M 2592 2348 L 2984 2284 "/>
<path transform="matrix(1,0,0,-1,-1855.8,2396.2)" d="M 2592 2348 L 2704 2284 " fill="#99ffdd" fill-rule="evenodd"/>
<path transform="matrix(1,0,0,-1,-1855.8,2396.2)" stroke-width="2" stroke-linecap="butt" stroke-linejoin="round" fill="none" stroke="#000000" d="M 2592 2348 L 2704 2284 "/>
<path transform="matrix(1,0,0,-1,-1855.8,2396.2)" d="M 2592 2348 L 2464 2284 " fill="#99ffdd" fill-rule="evenodd"/>
<path transform="matrix(1,0,0,-1,-1855.8,2396.2)" stroke-width="2" stroke-linecap="butt" stroke-linejoin="round" fill="none" stroke="#000000" d="M 2592 2348 L 2464 2284 "/>
<path transform="matrix(1,0,0,-1,-1855.8,2396.2)" d="M 2592 2348 L 2184 2284 " fill="#99ffdd" fill-rule="evenodd"/>
<path transform="matrix(1,0,0,-1,-1855.8,2396.2)" stroke-width="2" stroke-linecap="butt" stroke-linejoin="round" fill="none" stroke="#000000" d="M 2592 2348 L 2184 2284 "/>
<path transform="matrix(1,0,0,-1,-1855.8,2396.2)" d="M 2616 2348 C 2616 2361.25 2605.25 2372 2592 2372 C 2578.75 2372 2568 2361.25 2568 2348 C 2568 2334.75 2578.75 2324 2592 2324 C 2605.25 2324 2616 2334.75 2616 2348 " fill="#99ffdd" fill-rule="evenodd"/>
<path transform="matrix(1,0,0,-1,-1855.8,2396.2)" stroke-width="2" stroke-linecap="butt" stroke-linejoin="round" fill="none" stroke="#000000" d="M 2616 2348 C 2616 2361.25 2605.25 2372 2592 2372 C 2578.75 2372 2568 2361.25 2568 2348 C 2568 2334.75 2578.75 2324 2592 2324 C 2605.25 2324 2616 2334.75 2616 2348 "/>
<path transform="matrix(1,0,0,-1,-1855.8,2396.2)" d="M 2208 2284 C 2208 2297.25 2197.25 2308 2184 2308 C 2170.75 2308 2160 2297.25 2160 2284 C 2160 2270.75 2170.75 2260 2184 2260 C 2197.25 2260 2208 2270.75 2208 2284 " fill="#99ffdd" fill-rule="evenodd"/>
<path transform="matrix(1,0,0,-1,-1855.8,2396.2)" stroke-width="2" stroke-linecap="butt" stroke-linejoin="round" fill="none" stroke="#000000" d="M 2208 2284 C 2208 2297.25 2197.25 2308 2184 2308 C 2170.75 2308 2160 2297.25 2160 2284 C 2160 2270.75 2170.75 2260 2184 2260 C 2197.25 2260 2208 2270.75 2208 2284 "/>
<path transform="matrix(1,0,0,-1,-1855.8,2396.2)" d="M 2488 2284 C 2488 2297.25 2477.25 2308 2464 2308 C 2450.75 2308 2440 2297.25 2440 2284 C 2440 2270.75 2450.75 2260 2464 2260 C 2477.25 2260 2488 2270.75 2488 2284 " fill="#99ffdd" fill-rule="evenodd"/>
<path transform="matrix(1,0,0,-1,-1855.8,2396.2)" stroke-width="2" stroke-linecap="butt" stroke-linejoin="round" fill="none" stroke="#000000" d="M 2488 2284 C 2488 2297.25 2477.25 2308 2464 2308 C 2450.75 2308 2440 2297.25 2440 2284 C 2440 2270.75 2450.75 2260 2464 2260 C 2477.25 2260 2488 2270.75 2488 2284 "/>
<path transform="matrix(1,0,0,-1,-1855.8,2396.2)" d="M 2728 2284 C 2728 2297.25 2717.25 2308 2704 2308 C 2690.75 2308 2680 2297.25 2680 2284 C 2680 2270.75 2690.75 2260 2704 2260 C 2717.25 2260 2728 2270.75 2728 2284 " fill="#99ffdd" fill-rule="evenodd"/>
<path transform="matrix(1,0,0,-1,-1855.8,2396.2)" stroke-width="2" stroke-linecap="butt" stroke-linejoin="round" fill="none" stroke="#000000" d="M 2728 2284 C 2728 2297.25 2717.25 2308 2704 2308 C 2690.75 2308 2680 2297.25 2680 2284 C 2680 2270.75 2690.75 2260 2704 2260 C 2717.25 2260 2728 2270.75 2728 2284 "/>
<path transform="matrix(1,0,0,-1,-1855.8,2396.2)" d="M 3008 2284 C 3008 2297.25 2997.25 2308 2984 2308 C 2970.75 2308 2960 2297.25 2960 2284 C 2960 2270.75 2970.75 2260 2984 2260 C 2997.25 2260 3008 2270.75 3008 2284 " fill="#99ffdd" fill-rule="evenodd"/>
<path transform="matrix(1,0,0,-1,-1855.8,2396.2)" stroke-width="2" stroke-linecap="butt" stroke-linejoin="round" fill="none" stroke="#000000" d="M 3008 2284 C 3008 2297.25 2997.25 2308 2984 2308 C 2970.75 2308 2960 2297.25 2960 2284 C 2960 2270.75 2970.75 2260 2984 2260 C 2997.25 2260 3008 2270.75 3008 2284 "/>
<path transform="matrix(1,0,0,-1,-1855.8,2396.2)" d="M 1952 2184 C 1952 2197.25 1941.25 2208 1928 2208 C 1914.75 2208 1904 2197.25 1904 2184 C 1904 2170.75 1914.75 2160 1928 2160 C 1941.25 2160 1952 2170.75 1952 2184 " fill="#99ffdd" fill-rule="evenodd"/>
<path transform="matrix(1,0,0,-1,-1855.8,2396.2)" stroke-width="2" stroke-linecap="butt" stroke-linejoin="round" fill="none" stroke="#000000" d="M 1952 2184 C 1952 2197.25 1941.25 2208 1928 2208 C 1914.75 2208 1904 2197.25 1904 2184 C 1904 2170.75 1914.75 2160 1928 2160 C 1941.25 2160 1952 2170.75 1952 2184 "/>
<path transform="matrix(1,0,0,-1,-1855.8,2396.2)" d="M 2032 2184 C 2032 2197.25 2021.25 2208 2008 2208 C 1994.75 2208 1984 2197.25 1984 2184 C 1984 2170.75 1994.75 2160 2008 2160 C 2021.25 2160 2032 2170.75 2032 2184 " fill="#99ffdd" fill-rule="evenodd"/>
<path transform="matrix(1,0,0,-1,-1855.8,2396.2)" stroke-width="2" stroke-linecap="butt" stroke-linejoin="round" fill="none" stroke="#000000" d="M 2032 2184 C 2032 2197.25 2021.25 2208 2008 2208 C 1994.75 2208 1984 2197.25 1984 2184 C 1984 2170.75 1994.75 2160 2008 2160 C 2021.25 2160 2032 2170.75 2032 2184 "/>
<path transform="matrix(1,0,0,-1,-1855.8,2396.2)" d="M 2112 2184 C 2112 2197.25 2101.25 2208 2088 2208 C 2074.75 2208 2064 2197.25 2064 2184 C 2064 2170.75 2074.75 2160 2088 2160 C 2101.25 2160 2112 2170.75 2112 2184 " fill="#99ffdd" fill-rule="evenodd"/>
<path transform="matrix(1,0,0,-1,-1855.8,2396.2)" stroke-width="2" stroke-linecap="butt" stroke-linejoin="round" fill="none" stroke="#000000" d="M 2112 2184 C 2112 2197.25 2101.25 2208 2088 2208 C 2074.75 2208 2064 2197.25 2064 2184 C 2064 2170.75 2074.75 2160 2088 2160 C 2101.25 2160 2112 2170.75 2112 2184 "/>
<path transform="matrix(1,0,0,-1,-1855.8,2396.2)" d="M 2192 2184 C 2192 2197.25 2181.25 2208 2168 2208 C 2154.75 2208 2144 2197.25 2144 2184 C 2144 2170.75 2154.75 2160 2168 2160 C 2181.25 2160 2192 2170.75 2192 2184 " fill="#99ffdd" fill-rule="evenodd"/>
<path transform="matrix(1,0,0,-1,-1855.8,2396.2)" stroke-width="2" stroke-linecap="butt" stroke-linejoin="round" fill="none" stroke="#000000" d="M 2192 2184 C 2192 2197.25 2181.25 2208 2168 2208 C 2154.75 2208 2144 2197.25 2144 2184 C 2144 2170.75 2154.75 2160 2168 2160 C 2181.25 2160 2192 2170.75 2192 2184 "/>
<path transform="matrix(1,0,0,-1,-1855.8,2396.2)" d="M 2320 2184 C 2320 2197.25 2309.25 2208 2296 2208 C 2282.75 2208 2272 2197.25 2272 2184 C 2272 2170.75 2282.75 2160 2296 2160 C 2309.25 2160 2320 2170.75 2320 2184 " fill="#99ffdd" fill-rule="evenodd"/>
<path transform="matrix(1,0,0,-1,-1855.8,2396.2)" stroke-width="2" stroke-linecap="butt" stroke-linejoin="round" fill="none" stroke="#000000" d="M 2320 2184 C 2320 2197.25 2309.25 2208 2296 2208 C 2282.75 2208 2272 2197.25 2272 2184 C 2272 2170.75 2282.75 2160 2296 2160 C 2309.25 2160 2320 2170.75 2320 2184 "/>
<path transform="matrix(1,0,0,-1,-1855.8,2396.2)" d="M 2400 2184 C 2400 2197.25 2389.25 2208 2376 2208 C 2362.75 2208 2352 2197.25 2352 2184 C 2352 2170.75 2362.75 2160 2376 2160 C 2389.25 2160 2400 2170.75 2400 2184 " fill="#99ffdd" fill-rule="evenodd"/>
<path transform="matrix(1,0,0,-1,-1855.8,2396.2)" stroke-width="2" stroke-linecap="butt" stroke-linejoin="round" fill="none" stroke="#000000" d="M 2400 2184 C 2400 2197.25 2389.25 2208 2376 2208 C 2362.75 2208 2352 2197.25 2352 2184 C 2352 2170.75 2362.75 2160 2376 2160 C 2389.25 2160 2400 2170.75 2400 2184 "/>
<path transform="matrix(1,0,0,-1,-1855.8,2396.2)" d="M 2480 2184 C 2480 2197.25 2469.25 2208 2456 2208 C 2442.75 2208 2432 2197.25 2432 2184 C 2432 2170.75 2442.75 2160 2456 2160 C 2469.25 2160 2480 2170.75 2480 2184 " fill="#99ffdd" fill-rule="evenodd"/>
<path transform="matrix(1,0,0,-1,-1855.8,2396.2)" stroke-width="2" stroke-linecap="butt" stroke-linejoin="round" fill="none" stroke="#000000" d="M 2480 2184 C 2480 2197.25 2469.25 2208 2456 2208 C 2442.75 2208 2432 2197.25 2432 2184 C 2432 2170.75 2442.75 2160 2456 2160 C 2469.25 2160 2480 2170.75 2480 2184 "/>
<path transform="matrix(1,0,0,-1,-1855.8,2396.2)" d="M 2560 2184 C 2560 2197.25 2549.25 2208 2536 2208 C 2522.75 2208 2512 2197.25 2512 2184 C 2512 2170.75 2522.75 2160 2536 2160 C 2549.25 2160 2560 2170.75 2560 2184 " fill="#99ffdd" fill-rule="evenodd"/>
<path transform="matrix(1,0,0,-1,-1855.8,2396.2)" stroke-width="2" stroke-linecap="butt" stroke-linejoin="round" fill="none" stroke="#000000" d="M 2560 2184 C 2560 2197.25 2549.25 2208 2536 2208 C 2522.75 2208 2512 2197.25 2512 2184 C 2512 2170.75 2522.75 2160 2536 2160 C 2549.25 2160 2560 2170.75 2560 2184 "/>
<path transform="matrix(1,0,0,-1,-1855.8,2396.2)" d="M 2672 2184 C 2672 2197.25 2661.25 2208 2648 2208 C 2634.75 2208 2624 2197.25 2624 2184 C 2624 2170.75 2634.75 2160 2648 2160 C 2661.25 2160 2672 2170.75 2672 2184 " fill="#99ffdd" fill-rule="evenodd"/>
<path transform="matrix(1,0,0,-1,-1855.8,2396.2)" stroke-width="2" stroke-linecap="butt" stroke-linejoin="round" fill="none" stroke="#000000" d="M 2672 2184 C 2672 2197.25 2661.25 2208 2648 2208 C 2634.75 2208 2624 2197.25 2624 2184 C 2624 2170.75 2634.75 2160 2648 2160 C 2661.25 2160 2672 2170.75 2672 2184 "/>
<path transform="matrix(1,0,0,-1,-1855.8,2396.2)" d="M 2752 2184 C 2752 2197.25 2741.25 2208 2728 2208 C 2714.75 2208 2704 2197.25 2704 2184 C 2704 2170.75 2714.75 2160 2728 2160 C 2741.25 2160 2752 2170.75 2752 2184 " fill="#99ffdd" fill-rule="evenodd"/>
<path transform="matrix(1,0,0,-1,-1855.8,2396.2)" stroke-width="2" stroke-linecap="butt" stroke-linejoin="round" fill="none" stroke="#000000" d="M 2752 2184 C 2752 2197.25 2741.25 2208 2728 2208 C 2714.75 2208 2704 2197.25 2704 2184 C 2704 2170.75 2714.75 2160 2728 2160 C 2741.25 2160 2752 2170.75 2752 2184 "/>
<path transform="matrix(1,0,0,-1,-1855.8,2396.2)" d="M 2832 2184 C 2832 2197.25 2821.25 2208 2808 2208 C 2794.75 2208 2784 2197.25 2784 2184 C 2784 2170.75 2794.75 2160 2808 2160 C 2821.25 2160 2832 2170.75 2832 2184 " fill="#99ffdd" fill-rule="evenodd"/>
<path transform="matrix(1,0,0,-1,-1855.8,2396.2)" stroke-width="2" stroke-linecap="butt" stroke-linejoin="round" fill="none" stroke="#000000" d="M 2832 2184 C 2832 2197.25 2821.25 2208 2808 2208 C 2794.75 2208 2784 2197.25 2784 2184 C 2784 2170.75 2794.75 2160 2808 2160 C 2821.25 2160 2832 2170.75 2832 2184 "/>
<path transform="matrix(1,0,0,-1,-1855.8,2396.2)" d="M 2912 2184 C 2912 2197.25 2901.25 2208 2888 2208 C 2874.75 2208 2864 2197.25 2864 2184 C 2864 2170.75 2874.75 2160 2888 2160 C 2901.25 2160 2912 2170.75 2912 2184 " fill="#99ffdd" fill-rule="evenodd"/>
<path transform="matrix(1,0,0,-1,-1855.8,2396.2)" stroke-width="2" stroke-linecap="butt" stroke-linejoin="round" fill="none" stroke="#000000" d="M 2912 2184 C 2912 2197.25 2901.25 2208 2888 2208 C 2874.75 2208 2864 2197.25 2864 2184 C 2864 2170.75 2874.75 2160 2888 2160 C 2901.25 2160 2912 2170.75 2912 2184 "/>
<path transform="matrix(1,0,0,-1,-1855.8,2396.2)" d="M 3032 2184 C 3032 2197.25 3021.25 2208 3008 2208 C 2994.75 2208 2984 2197.25 2984 2184 C 2984 2170.75 2994.75 2160 3008 2160 C 3021.25 2160 3032 2170.75 3032 2184 " fill="#99ffdd" fill-rule="evenodd"/>
<path transform="matrix(1,0,0,-1,-1855.8,2396.2)" stroke-width="2" stroke-linecap="butt" stroke-linejoin="round" fill="none" stroke="#000000" d="M 3032 2184 C 3032 2197.25 3021.25 2208 3008 2208 C 2994.75 2208 2984 2197.25 2984 2184 C 2984 2170.75 2994.75 2160 3008 2160 C 3021.25 2160 3032 2170.75 3032 2184 "/>
<path transform="matrix(1,0,0,-1,-1855.8,2396.2)" d="M 3112 2184 C 3112 2197.25 3101.25 2208 3088 2208 C 3074.75 2208 3064 2197.25 3064 2184 C 3064 2170.75 3074.75 2160 3088 2160 C 3101.25 2160 3112 2170.75 3112 2184 " fill="#99ffdd" fill-rule="evenodd"/>
<path transform="matrix(1,0,0,-1,-1855.8,2396.2)" stroke-width="2" stroke-linecap="butt" stroke-linejoin="round" fill="none" stroke="#000000" d="M 3112 2184 C 3112 2197.25 3101.25 2208 3088 2208 C 3074.75 2208 3064 2197.25 3064 2184 C 3064 2170.75 3074.75 2160 3088 2160 C 3101.25 2160 3112 2170.75 3112 2184 "/>
<path transform="matrix(1,0,0,-1,-1855.8,2396.2)" d="M 3192 2184 C 3192 2197.25 3181.25 2208 3168 2208 C 3154.75 2208 3144 2197.25 3144 2184 C 3144 2170.75 3154.75 2160 3168 2160 C 3181.25 2160 3192 2170.75 3192 2184 " fill="#99ffdd" fill-rule="evenodd"/>
<path transform="matrix(1,0,0,-1,-1855.8,2396.2)" stroke-width="2" stroke-linecap="butt" stroke-linejoin="round" fill="none" stroke="#000000" d="M 3192 2184 C 3192 2197.25 3181.25 2208 3168 2208 C 3154.75 2208 3144 2197.25 3144 2184 C 3144 2170.75 3154.75 2160 3168 2160 C 3181.25 2160 3192 2170.75 3192 2184 "/>
<path transform="matrix(1,0,0,-1,-1855.8,2396.2)" d="M 3272 2184 C 3272 2197.25 3261.25 2208 3248 2208 C 3234.75 2208 3224 2197.25 3224 2184 C 3224 2170.75 3234.75 2160 3248 2160 C 3261.25 2160 3272 2170.75 3272 2184 " fill="#99ffdd" fill-rule="evenodd"/>
<path transform="matrix(1,0,0,-1,-1855.8,2396.2)" stroke-width="2" stroke-linecap="butt" stroke-linejoin="round" fill="none" stroke="#000000" d="M 3272 2184 C 3272 2197.25 3261.25 2208 3248 2208 C 3234.75 2208 3224 2197.25 3224 2184 C 3224 2170.75 3234.75 2160 3248 2160 C 3261.25 2160 3272 2170.75 3272 2184 "/>
<path transform="matrix(1,0,0,-1,-1855.8,2396.2)" d="M 2192 2104 C 2192 2117.25 2181.25 2128 2168 2128 C 2154.75 2128 2144 2117.25 2144 2104 C 2144 2090.75 2154.75 2080 2168 2080 C 2181.25 2080 2192 2090.75 2192 2104 " fill="#99ffdd" fill-rule="evenodd"/>
<path transform="matrix(1,0,0,-1,-1855.8,2396.2)" stroke-width="2" stroke-linecap="butt" stroke-linejoin="round" fill="none" stroke="#000000" d="M 2192 2104 C 2192 2117.25 2181.25 2128 2168 2128 C 2154.75 2128 2144 2117.25 2144 2104 C 2144 2090.75 2154.75 2080 2168 2080 C 2181.25 2080 2192 2090.75 2192 2104 "/>
<path transform="matrix(1,0,0,-1,-1855.8,2396.2)" d="M 2192 2024 C 2192 2037.25 2181.25 2048 2168 2048 C 2154.75 2048 2144 2037.25 2144 2024 C 2144 2010.75 2154.75 2000 2168 2000 C 2181.25 2000 2192 2010.75 2192 2024 " fill="#99ffdd" fill-rule="evenodd"/>
<path transform="matrix(1,0,0,-1,-1855.8,2396.2)" stroke-width="2" stroke-linecap="butt" stroke-linejoin="round" fill="none" stroke="#000000" d="M 2192 2024 C 2192 2037.25 2181.25 2048 2168 2048 C 2154.75 2048 2144 2037.25 2144 2024 C 2144 2010.75 2154.75 2000 2168 2000 C 2181.25 2000 2192 2010.75 2192 2024 "/>
<path transform="matrix(1,0,0,-1,-1855.8,2396.2)" d="M 2192 1776 C 2192 1789.25 2181.25 1800 2168 1800 C 2154.75 1800 2144 1789.25 2144 1776 C 2144 1762.75 2154.75 1752 2168 1752 C 2181.25 1752 2192 1762.75 2192 1776 " fill="#99ffdd" fill-rule="evenodd"/>
<path transform="matrix(1,0,0,-1,-1855.8,2396.2)" stroke-width="2" stroke-linecap="butt" stroke-linejoin="round" fill="none" stroke="#000000" d="M 2192 1776 C 2192 1789.25 2181.25 1800 2168 1800 C 2154.75 1800 2144 1789.25 2144 1776 C 2144 1762.75 2154.75 1752 2168 1752 C 2181.25 1752 2192 1762.75 2192 1776 "/>
<path transform="matrix(1,0,0,-1,-1855.8,2396.2)" d="M 2672 2108 C 2672 2121.25 2661.25 2132 2648 2132 C 2634.75 2132 2624 2121.25 2624 2108 C 2624 2094.75 2634.75 2084 2648 2084 C 2661.25 2084 2672 2094.75 2672 2108 " fill="#99ffdd" fill-rule="evenodd"/>
<path transform="matrix(1,0,0,-1,-1855.8,2396.2)" stroke-width="2" stroke-linecap="butt" stroke-linejoin="round" fill="none" stroke="#000000" d="M 2672 2108 C 2672 2121.25 2661.25 2132 2648 2132 C 2634.75 2132 2624 2121.25 2624 2108 C 2624 2094.75 2634.75 2084 2648 2084 C 2661.25 2084 2672 2094.75 2672 2108 "/>
<path transform="matrix(1,0,0,-1,-1855.8,2396.2)" d="M 2672 2028 C 2672 2041.25 2661.25 2052 2648 2052 C 2634.75 2052 2624 2041.25 2624 2028 C 2624 2014.75 2634.75 2004 2648 2004 C 2661.25 2004 2672 2014.75 2672 2028 " fill="#99ffdd" fill-rule="evenodd"/>
<path transform="matrix(1,0,0,-1,-1855.8,2396.2)" stroke-width="2" stroke-linecap="butt" stroke-linejoin="round" fill="none" stroke="#000000" d="M 2672 2028 C 2672 2041.25 2661.25 2052 2648 2052 C 2634.75 2052 2624 2041.25 2624 2028 C 2624 2014.75 2634.75 2004 2648 2004 C 2661.25 2004 2672 2014.75 2672 2028 "/>
<path transform="matrix(1,0,0,-1,-1855.8,2396.2)" d="M 2672 1776 C 2672 1789.25 2661.25 1800 2648 1800 C 2634.75 1800 2624 1789.25 2624 1776 C 2624 1762.75 2634.75 1752 2648 1752 C 2661.25 1752 2672 1762.75 2672 1776 " fill="#99ffdd" fill-rule="evenodd"/>
<path transform="matrix(1,0,0,-1,-1855.8,2396.2)" stroke-width="2" stroke-linecap="butt" stroke-linejoin="round" fill="none" stroke="#000000" d="M 2672 1776 C 2672 1789.25 2661.25 1800 2648 1800 C 2634.75 1800 2624 1789.25 2624 1776 C 2624 1762.75 2634.75 1752 2648 1752 C 2661.25 1752 2672 1762.75 2672 1776 "/>
<path transform="matrix(1,0,0,-1,-1855.8,2396.2)" d="M 3272 2108 C 3272 2121.25 3261.25 2132 3248 2132 C 3234.75 2132 3224 2121.25 3224 2108 C 3224 2094.75 3234.75 2084 3248 2084 C 3261.25 2084 3272 2094.75 3272 2108 " fill="#99ffdd" fill-rule="evenodd"/>
<path transform="matrix(1,0,0,-1,-1855.8,2396.2)" stroke-width="2" stroke-linecap="butt" stroke-linejoin="round" fill="none" stroke="#000000" d="M 3272 2108 C 3272 2121.25 3261.25 2132 3248 2132 C 3234.75 2132 3224 2121.25 3224 2108 C 3224 2094.75 3234.75 2084 3248 2084 C 3261.25 2084 3272 2094.75 3272 2108 "/>
<path transform="matrix(1,0,0,-1,-1855.8,2396.2)" d="M 3272 2028 C 3272 2041.25 3261.25 2052 3248 2052 C 3234.75 2052 3224 2041.25 3224 2028 C 3224 2014.75 3234.75 2004 3248 2004 C 3261.25 2004 3272 2014.75 3272 2028 " fill="#99ffdd" fill-rule="evenodd"/>
<path transform="matrix(1,0,0,-1,-1855.8,2396.2)" stroke-width="2" stroke-linecap="butt" stroke-linejoin="round" fill="none" stroke="#000000" d="M 3272 2028 C 3272 2041.25 3261.25 2052 3248 2052 C 3234.75 2052 3224 2041.25 3224 2028 C 3224 2014.75 3234.75 2004 3248 2004 C 3261.25 2004 3272 2014.75 3272 2028 "/>
<path transform="matrix(1,0,0,-1,-1855.8,2396.2)" d="M 3272 1892 C 3272 1905.25 3261.25 1916 3248 1916 C 3234.75 1916 3224 1905.25 3224 1892 C 3224 1878.75 3234.75 1868 3248 1868 C 3261.25 1868 3272 1878.75 3272 1892 " fill="#99ffdd" fill-rule="evenodd"/>
<path transform="matrix(1,0,0,-1,-1855.8,2396.2)" stroke-width="2" stroke-linecap="butt" stroke-linejoin="round" fill="none" stroke="#000000" d="M 3272 1892 C 3272 1905.25 3261.25 1916 3248 1916 C 3234.75 1916 3224 1905.25 3224 1892 C 3224 1878.75 3234.75 1868 3248 1868 C 3261.25 1868 3272 1878.75 3272 1892 "/>
<path transform="matrix(1,0,0,-1,-1855.8,2396.2)" d="M 2172 1968 C 2172 1970.21 2170.21 1972 2168 1972 C 2165.79 1972 2164 1970.21 2164 1968 C 2164 1965.79 2165.79 1964 2168 1964 C 2170.21 1964 2172 1965.79 2172 1968 " fill-rule="evenodd"/>
<path transform="matrix(1,0,0,-1,-1855.8,2396.2)" d="M 2172 1956 C 2172 1958.21 2170.21 1960 2168 1960 C 2165.79 1960 2164 1958.21 2164 1956 C 2164 1953.79 2165.79 1952 2168 1952 C 2170.21 1952 2172 1953.79 2172 1956 " fill-rule="evenodd"/>
<path transform="matrix(1,0,0,-1,-1855.8,2396.2)" d="M 2172 1944 C 2172 1946.21 2170.21 1948 2168 1948 C 2165.79 1948 2164 1946.21 2164 1944 C 2164 1941.79 2165.79 1940 2168 1940 C 2170.21 1940 2172 1941.79 2172 1944 " fill-rule="evenodd"/>
<path transform="matrix(1,0,0,-1,-1855.8,2396.2)" d="M 2652 1972 C 2652 1974.21 2650.21 1976 2648 1976 C 2645.79 1976 2644 1974.21 2644 1972 C 2644 1969.79 2645.79 1968 2648 1968 C 2650.21 1968 2652 1969.79 2652 1972 " fill-rule="evenodd"/>
<path transform="matrix(1,0,0,-1,-1855.8,2396.2)" d="M 2652 1960 C 2652 1962.21 2650.21 1964 2648 1964 C 2645.79 1964 2644 1962.21 2644 1960 C 2644 1957.79 2645.79 1956 2648 1956 C 2650.21 1956 2652 1957.79 2652 1960 " fill-rule="evenodd"/>
<path transform="matrix(1,0,0,-1,-1855.8,2396.2)" d="M 2652 1948 C 2652 1950.21 2650.21 1952 2648 1952 C 2645.79 1952 2644 1950.21 2644 1948 C 2644 1945.79 2645.79 1944 2648 1944 C 2650.21 1944 2652 1945.79 2652 1948 " fill-rule="evenodd"/>
<path transform="matrix(1,0,0,-1,-1855.8,2396.2)" d="M 2072 1648 C 2072 1661.25 2061.25 1672 2048 1672 C 2034.75 1672 2024 1661.25 2024 1648 C 2024 1634.75 2034.75 1624 2048 1624 C 2061.25 1624 2072 1634.75 2072 1648 " fill="#99ffdd" fill-rule="evenodd"/>
<path transform="matrix(1,0,0,-1,-1855.8,2396.2)" stroke-width="2" stroke-linecap="butt" stroke-linejoin="round" fill="none" stroke="#000000" d="M 2072 1648 C 2072 1661.25 2061.25 1672 2048 1672 C 2034.75 1672 2024 1661.25 2024 1648 C 2024 1634.75 2034.75 1624 2048 1624 C 2061.25 1624 2072 1634.75 2072 1648 "/>
<path transform="matrix(1,0,0,-1,-1855.8,2396.2)" d="M 2152 1648 C 2152 1661.25 2141.25 1672 2128 1672 C 2114.75 1672 2104 1661.25 2104 1648 C 2104 1634.75 2114.75 1624 2128 1624 C 2141.25 1624 2152 1634.75 2152 1648 " fill="#99ffdd" fill-rule="evenodd"/>
<path transform="matrix(1,0,0,-1,-1855.8,2396.2)" stroke-width="2" stroke-linecap="butt" stroke-linejoin="round" fill="none" stroke="#000000" d="M 2152 1648 C 2152 1661.25 2141.25 1672 2128 1672 C 2114.75 1672 2104 1661.25 2104 1648 C 2104 1634.75 2114.75 1624 2128 1624 C 2141.25 1624 2152 1634.75 2152 1648 "/>
<path transform="matrix(1,0,0,-1,-1855.8,2396.2)" d="M 2232 1648 C 2232 1661.25 2221.25 1672 2208 1672 C 2194.75 1672 2184 1661.25 2184 1648 C 2184 1634.75 2194.75 1624 2208 1624 C 2221.25 1624 2232 1634.75 2232 1648 " fill="#99ffdd" fill-rule="evenodd"/>
<path transform="matrix(1,0,0,-1,-1855.8,2396.2)" stroke-width="2" stroke-linecap="butt" stroke-linejoin="round" fill="none" stroke="#000000" d="M 2232 1648 C 2232 1661.25 2221.25 1672 2208 1672 C 2194.75 1672 2184 1661.25 2184 1648 C 2184 1634.75 2194.75 1624 2208 1624 C 2221.25 1624 2232 1634.75 2232 1648 "/>
<path transform="matrix(1,0,0,-1,-1855.8,2396.2)" d="M 2312 1648 C 2312 1661.25 2301.25 1672 2288 1672 C 2274.75 1672 2264 1661.25 2264 1648 C 2264 1634.75 2274.75 1624 2288 1624 C 2301.25 1624 2312 1634.75 2312 1648 " fill="#99ffdd" fill-rule="evenodd"/>
<path transform="matrix(1,0,0,-1,-1855.8,2396.2)" stroke-width="2" stroke-linecap="butt" stroke-linejoin="round" fill="none" stroke="#000000" d="M 2312 1648 C 2312 1661.25 2301.25 1672 2288 1672 C 2274.75 1672 2264 1661.25 2264 1648 C 2264 1634.75 2274.75 1624 2288 1624 C 2301.25 1624 2312 1634.75 2312 1648 "/>
<path transform="matrix(1,0,0,-1,-1855.8,2396.2)" d="M 2552 1648 C 2552 1661.25 2541.25 1672 2528 1672 C 2514.75 1672 2504 1661.25 2504 1648 C 2504 1634.75 2514.75 1624 2528 1624 C 2541.25 1624 2552 1634.75 2552 1648 " fill="#99ffdd" fill-rule="evenodd"/>
<path transform="matrix(1,0,0,-1,-1855.8,2396.2)" stroke-width="2" stroke-linecap="butt" stroke-linejoin="round" fill="none" stroke="#000000" d="M 2552 1648 C 2552 1661.25 2541.25 1672 2528 1672 C 2514.75 1672 2504 1661.25 2504 1648 C 2504 1634.75 2514.75 1624 2528 1624 C 2541.25 1624 2552 1634.75 2552 1648 "/>
<path transform="matrix(1,0,0,-1,-1855.8,2396.2)" d="M 2632 1648 C 2632 1661.25 2621.25 1672 2608 1672 C 2594.75 1672 2584 1661.25 2584 1648 C 2584 1634.75 2594.75 1624 2608 1624 C 2621.25 1624 2632 1634.75 2632 1648 " fill="#99ffdd" fill-rule="evenodd"/>
<path transform="matrix(1,0,0,-1,-1855.8,2396.2)" stroke-width="2" stroke-linecap="butt" stroke-linejoin="round" fill="none" stroke="#000000" d="M 2632 1648 C 2632 1661.25 2621.25 1672 2608 1672 C 2594.75 1672 2584 1661.25 2584 1648 C 2584 1634.75 2594.75 1624 2608 1624 C 2621.25 1624 2632 1634.75 2632 1648 "/>
<path transform="matrix(1,0,0,-1,-1855.8,2396.2)" d="M 2712 1648 C 2712 1661.25 2701.25 1672 2688 1672 C 2674.75 1672 2664 1661.25 2664 1648 C 2664 1634.75 2674.75 1624 2688 1624 C 2701.25 1624 2712 1634.75 2712 1648 " fill="#99ffdd" fill-rule="evenodd"/>
<path transform="matrix(1,0,0,-1,-1855.8,2396.2)" stroke-width="2" stroke-linecap="butt" stroke-linejoin="round" fill="none" stroke="#000000" d="M 2712 1648 C 2712 1661.25 2701.25 1672 2688 1672 C 2674.75 1672 2664 1661.25 2664 1648 C 2664 1634.75 2674.75 1624 2688 1624 C 2701.25 1624 2712 1634.75 2712 1648 "/>
<path transform="matrix(1,0,0,-1,-1855.8,2396.2)" d="M 2792 1648 C 2792 1661.25 2781.25 1672 2768 1672 C 2754.75 1672 2744 1661.25 2744 1648 C 2744 1634.75 2754.75 1624 2768 1624 C 2781.25 1624 2792 1634.75 2792 1648 " fill="#99ffdd" fill-rule="evenodd"/>
<path transform="matrix(1,0,0,-1,-1855.8,2396.2)" stroke-width="2" stroke-linecap="butt" stroke-linejoin="round" fill="none" stroke="#000000" d="M 2792 1648 C 2792 1661.25 2781.25 1672 2768 1672 C 2754.75 1672 2744 1661.25 2744 1648 C 2744 1634.75 2754.75 1624 2768 1624 C 2781.25 1624 2792 1634.75 2792 1648 "/>
<path transform="matrix(1,0,0,-1,-1855.8,2396.2)" d="M 3272 1776 C 3272 1789.25 3261.25 1800 3248 1800 C 3234.75 1800 3224 1789.25 3224 1776 C 3224 1762.75 3234.75 1752 3248 1752 C 3261.25 1752 3272 1762.75 3272 1776 " fill="#99ffdd" fill-rule="evenodd"/>
<path transform="matrix(1,0,0,-1,-1855.8,2396.2)" stroke-width="2" stroke-linecap="butt" stroke-linejoin="round" fill="none" stroke="#000000" d="M 3272 1776 C 3272 1789.25 3261.25 1800 3248 1800 C 3234.75 1800 3224 1789.25 3224 1776 C 3224 1762.75 3234.75 1752 3248 1752 C 3261.25 1752 3272 1762.75 3272 1776 "/>
<path transform="matrix(1,0,0,-1,-1855.8,2396.2)" d="M 3112 1672 C 3112 1685.25 3101.25 1696 3088 1696 C 3074.75 1696 3064 1685.25 3064 1672 C 3064 1658.75 3074.75 1648 3088 1648 C 3101.25 1648 3112 1658.75 3112 1672 " fill="#99ffdd" fill-rule="evenodd"/>
<path transform="matrix(1,0,0,-1,-1855.8,2396.2)" stroke-width="2" stroke-linecap="butt" stroke-linejoin="round" fill="none" stroke="#000000" d="M 3112 1672 C 3112 1685.25 3101.25 1696 3088 1696 C 3074.75 1696 3064 1685.25 3064 1672 C 3064 1658.75 3074.75 1648 3088 1648 C 3101.25 1648 3112 1658.75 3112 1672 "/>
<path transform="matrix(1,0,0,-1,-1855.8,2396.2)" d="M 3192 1672 C 3192 1685.25 3181.25 1696 3168 1696 C 3154.75 1696 3144 1685.25 3144 1672 C 3144 1658.75 3154.75 1648 3168 1648 C 3181.25 1648 3192 1658.75 3192 1672 " fill="#99ffdd" fill-rule="evenodd"/>
<path transform="matrix(1,0,0,-1,-1855.8,2396.2)" stroke-width="2" stroke-linecap="butt" stroke-linejoin="round" fill="none" stroke="#000000" d="M 3192 1672 C 3192 1685.25 3181.25 1696 3168 1696 C 3154.75 1696 3144 1685.25 3144 1672 C 3144 1658.75 3154.75 1648 3168 1648 C 3181.25 1648 3192 1658.75 3192 1672 "/>
<path transform="matrix(1,0,0,-1,-1855.8,2396.2)" d="M 3272 1672 C 3272 1685.25 3261.25 1696 3248 1696 C 3234.75 1696 3224 1685.25 3224 1672 C 3224 1658.75 3234.75 1648 3248 1648 C 3261.25 1648 3272 1658.75 3272 1672 " fill="#99ffdd" fill-rule="evenodd"/>
<path transform="matrix(1,0,0,-1,-1855.8,2396.2)" stroke-width="2" stroke-linecap="butt" stroke-linejoin="round" fill="none" stroke="#000000" d="M 3272 1672 C 3272 1685.25 3261.25 1696 3248 1696 C 3234.75 1696 3224 1685.25 3224 1672 C 3224 1658.75 3234.75 1648 3248 1648 C 3261.25 1648 3272 1658.75 3272 1672 "/>
<path transform="matrix(1,0,0,-1,-1855.8,2396.2)" d="M 1980 1548 C 1980 1561.25 1969.25 1572 1956 1572 C 1942.75 1572 1932 1561.25 1932 1548 C 1932 1534.75 1942.75 1524 1956 1524 C 1969.25 1524 1980 1534.75 1980 1548 " fill="#99ffdd" fill-rule="evenodd"/>
<path transform="matrix(1,0,0,-1,-1855.8,2396.2)" stroke-width="2" stroke-linecap="butt" stroke-linejoin="round" fill="none" stroke="#000000" d="M 1980 1548 C 1980 1561.25 1969.25 1572 1956 1572 C 1942.75 1572 1932 1561.25 1932 1548 C 1932 1534.75 1942.75 1524 1956 1524 C 1969.25 1524 1980 1534.75 1980 1548 "/>
<path transform="matrix(1,0,0,-1,-1855.8,2396.2)" d="M 2060 1548 C 2060 1561.25 2049.25 1572 2036 1572 C 2022.75 1572 2012 1561.25 2012 1548 C 2012 1534.75 2022.75 1524 2036 1524 C 2049.25 1524 2060 1534.75 2060 1548 " fill="#99ffdd" fill-rule="evenodd"/>
<path transform="matrix(1,0,0,-1,-1855.8,2396.2)" stroke-width="2" stroke-linecap="butt" stroke-linejoin="round" fill="none" stroke="#000000" d="M 2060 1548 C 2060 1561.25 2049.25 1572 2036 1572 C 2022.75 1572 2012 1561.25 2012 1548 C 2012 1534.75 2022.75 1524 2036 1524 C 2049.25 1524 2060 1534.75 2060 1548 "/>
<path transform="matrix(1,0,0,-1,-1855.8,2396.2)" d="M 2140 1548 C 2140 1561.25 2129.25 1572 2116 1572 C 2102.75 1572 2092 1561.25 2092 1548 C 2092 1534.75 2102.75 1524 2116 1524 C 2129.25 1524 2140 1534.75 2140 1548 " fill="#99ffdd" fill-rule="evenodd"/>
<path transform="matrix(1,0,0,-1,-1855.8,2396.2)" stroke-width="2" stroke-linecap="butt" stroke-linejoin="round" fill="none" stroke="#000000" d="M 2140 1548 C 2140 1561.25 2129.25 1572 2116 1572 C 2102.75 1572 2092 1561.25 2092 1548 C 2092 1534.75 2102.75 1524 2116 1524 C 2129.25 1524 2140 1534.75 2140 1548 "/>
<path transform="matrix(1,0,0,-1,-1855.8,2396.2)" d="M 2220 1548 C 2220 1561.25 2209.25 1572 2196 1572 C 2182.75 1572 2172 1561.25 2172 1548 C 2172 1534.75 2182.75 1524 2196 1524 C 2209.25 1524 2220 1534.75 2220 1548 " fill="#99ffdd" fill-rule="evenodd"/>
<path transform="matrix(1,0,0,-1,-1855.8,2396.2)" stroke-width="2" stroke-linecap="butt" stroke-linejoin="round" fill="none" stroke="#000000" d="M 2220 1548 C 2220 1561.25 2209.25 1572 2196 1572 C 2182.75 1572 2172 1561.25 2172 1548 C 2172 1534.75 2182.75 1524 2196 1524 C 2209.25 1524 2220 1534.75 2220 1548 "/>
<path transform="matrix(1,0,0,-1,-1855.8,2396.2)" d="M 3028 1672 C 3028 1685.25 3017.25 1696 3004 1696 C 2990.75 1696 2980 1685.25 2980 1672 C 2980 1658.75 2990.75 1648 3004 1648 C 3017.25 1648 3028 1658.75 3028 1672 " fill="#99ffdd" fill-rule="evenodd"/>
<path transform="matrix(1,0,0,-1,-1855.8,2396.2)" stroke-width="2" stroke-linecap="butt" stroke-linejoin="round" fill="none" stroke="#000000" d="M 3028 1672 C 3028 1685.25 3017.25 1696 3004 1696 C 2990.75 1696 2980 1685.25 2980 1672 C 2980 1658.75 2990.75 1648 3004 1648 C 3017.25 1648 3028 1658.75 3028 1672 "/>
<path transform="matrix(1,0,0,-1,-1855.8,2396.2)" d="M 2672 1888 C 2672 1901.25 2661.25 1912 2648 1912 C 2634.75 1912 2624 1901.25 2624 1888 C 2624 1874.75 2634.75 1864 2648 1864 C 2661.25 1864 2672 1874.75 2672 1888 " fill="#99ffdd" fill-rule="evenodd"/>
<path transform="matrix(1,0,0,-1,-1855.8,2396.2)" stroke-width="2" stroke-linecap="butt" stroke-linejoin="round" fill="none" stroke="#000000" d="M 2672 1888 C 2672 1901.25 2661.25 1912 2648 1912 C 2634.75 1912 2624 1901.25 2624 1888 C 2624 1874.75 2634.75 1864 2648 1864 C 2661.25 1864 2672 1874.75 2672 1888 "/>
<path transform="matrix(1,0,0,-1,-1855.8,2396.2)" d="M 2192 1884 C 2192 1897.25 2181.25 1908 2168 1908 C 2154.75 1908 2144 1897.25 2144 1884 C 2144 1870.75 2154.75 1860 2168 1860 C 2181.25 1860 2192 1870.75 2192 1884 " fill="#99ffdd" fill-rule="evenodd"/>
<path transform="matrix(1,0,0,-1,-1855.8,2396.2)" stroke-width="2" stroke-linecap="butt" stroke-linejoin="round" fill="none" stroke="#000000" d="M 2192 1884 C 2192 1897.25 2181.25 1908 2168 1908 C 2154.75 1908 2144 1897.25 2144 1884 C 2144 1870.75 2154.75 1860 2168 1860 C 2181.25 1860 2192 1870.75 2192 1884 "/>
<clipPath id="cp0">
<path transform="matrix(1,0,0,-1,488.19996,104.97998)" d="M -1 -1 L 23.715 -1 L 23.715 16.454 L -1 16.454 Z "/>
</clipPath>
<g clip-path="url(#cp0)">
<text xml:space="preserve" transform="matrix(1 0 -0 1 488.19996 881.526)" font-size="24.7871" font-family="CMMI12" font-style="italic"><tspan y="-781.328" x="0">a</tspan></text>
<text xml:space="preserve" transform="matrix(1 0 -0 1 488.19996 881.526)" font-size="20.6625" font-family="CMR17"><tspan y="-776.546" x="12.741">1</tspan></text>
</g>
<clipPath id="cp1">
<path transform="matrix(1,0,0,-1,676.19998,100.97998)" d="M -1 -1 L 23.715 -1 L 23.715 16.454 L -1 16.454 Z "/>
</clipPath>
<g clip-path="url(#cp1)">
<text xml:space="preserve" transform="matrix(1 0 -0 1 676.19998 877.526)" font-size="24.7871" font-family="CMMI12" font-style="italic"><tspan y="-781.328" x="0">a</tspan></text>
<text xml:space="preserve" transform="matrix(1 0 -0 1 676.19998 877.526)" font-size="20.6625" font-family="CMR17"><tspan y="-776.546" x="12.741">2</tspan></text>
</g>
<clipPath id="cp2">
<path transform="matrix(1,0,0,-1,768.19998,100.97998)" d="M -1 -1 L 23.715 -1 L 23.715 16.454 L -1 16.454 Z "/>
</clipPath>
<g clip-path="url(#cp2)">
<text xml:space="preserve" transform="matrix(1 0 -0 1 768.19998 877.526)" font-size="24.7871" font-family="CMMI12" font-style="italic"><tspan y="-781.328" x="0">a</tspan></text>
<text xml:space="preserve" transform="matrix(1 0 -0 1 768.19998 877.526)" font-size="20.6625" font-family="CMR17"><tspan y="-776.546" x="12.741">3</tspan></text>
</g>
<clipPath id="cp3">
<path transform="matrix(1,0,0,-1,924.19998,100.97998)" d="M -1 -1 L 23.715 -1 L 23.715 16.454 L -1 16.454 Z "/>
</clipPath>
<g clip-path="url(#cp3)">
<text xml:space="preserve" transform="matrix(1 0 -0 1 924.19998 877.526)" font-size="24.7871" font-family="CMMI12" font-style="italic"><tspan y="-781.328" x="0">a</tspan></text>
<text xml:space="preserve" transform="matrix(1 0 -0 1 924.19998 877.526)" font-size="20.6625" font-family="CMR17"><tspan y="-776.546" x="12.741">4</tspan></text>
</g>
<clipPath id="cp4">
<path transform="matrix(1,0,0,-1,184.19995,708.98)" d="M -1 -1 L 23.715 -1 L 23.715 16.454 L -1 16.454 Z "/>
</clipPath>
<g clip-path="url(#cp4)">
<text xml:space="preserve" transform="matrix(1 0 -0 1 184.19995 1485.526)" font-size="24.7871" font-family="CMMI12" font-style="italic"><tspan y="-781.328" x="0">a</tspan></text>
<text xml:space="preserve" transform="matrix(1 0 -0 1 184.19995 1485.526)" font-size="20.6625" font-family="CMR17"><tspan y="-776.546" x="12.741">1</tspan></text>
</g>
<clipPath id="cp5">
<path transform="matrix(1,0,0,-1,252.19995,708.98)" d="M -1 -1 L 23.715 -1 L 23.715 16.454 L -1 16.454 Z "/>
</clipPath>
<g clip-path="url(#cp5)">
<text xml:space="preserve" transform="matrix(1 0 -0 1 252.19995 1485.526)" font-size="24.7871" font-family="CMMI12" font-style="italic"><tspan y="-781.328" x="0">a</tspan></text>
<text xml:space="preserve" transform="matrix(1 0 -0 1 252.19995 1485.526)" font-size="20.6625" font-family="CMR17"><tspan y="-776.546" x="12.741">2</tspan></text>
</g>
<clipPath id="cp6">
<path transform="matrix(1,0,0,-1,344.19996,708.98)" d="M -1 -1 L 23.715 -1 L 23.715 16.454 L -1 16.454 Z "/>
</clipPath>
<g clip-path="url(#cp6)">
<text xml:space="preserve" transform="matrix(1 0 -0 1 344.19996 1485.526)" font-size="24.7871" font-family="CMMI12" font-style="italic"><tspan y="-781.328" x="0">a</tspan></text>
<text xml:space="preserve" transform="matrix(1 0 -0 1 344.19996 1485.526)" font-size="20.6625" font-family="CMR17"><tspan y="-776.546" x="12.741">3</tspan></text>
</g>
<clipPath id="cp7">
<path transform="matrix(1,0,0,-1,416.19996,708.98)" d="M -1 -1 L 23.715 -1 L 23.715 16.454 L -1 16.454 Z "/>
</clipPath>
<g clip-path="url(#cp7)">
<text xml:space="preserve" transform="matrix(1 0 -0 1 416.19996 1485.526)" font-size="24.7871" font-family="CMMI12" font-style="italic"><tspan y="-781.328" x="0">a</tspan></text>
<text xml:space="preserve" transform="matrix(1 0 -0 1 416.19996 1485.526)" font-size="20.6625" font-family="CMR17"><tspan y="-776.546" x="12.741">4</tspan></text>
</g>
<clipPath id="cp8">
<path transform="matrix(1,0,0,-1,276.19996,335.91993)" d="M -1 -1 L 22.946 -1 L 22.946 15.39 L -1 15.39 Z "/>
</clipPath>
<g clip-path="url(#cp8)">
<text xml:space="preserve" transform="matrix(1 0 -0 1 276.19996 1113.5299)" font-size="24.7871" font-family="CMMI12" font-style="italic"><tspan y="-781.328" x="0">a</tspan></text>
<text xml:space="preserve" transform="matrix(1 0 -0 1 276.19996 1113.5299)" font-size="20.6625" font-family="CMMI12" font-style="italic"><tspan y="-777.61" x="12.741">c</tspan></text>
</g>
<clipPath id="cp9">
<path transform="matrix(1,0,0,-1,272.19996,415.91993)" d="M -1 -1 L 22.946 -1 L 22.946 15.39 L -1 15.39 Z "/>
</clipPath>
<g clip-path="url(#cp9)">
<text xml:space="preserve" transform="matrix(1 0 -0 1 272.19996 1193.5299)" font-size="24.7871" font-family="CMMI12" font-style="italic"><tspan y="-781.328" x="0">a</tspan></text>
<text xml:space="preserve" transform="matrix(1 0 -0 1 272.19996 1193.5299)" font-size="20.6625" font-family="CMMI12" font-style="italic"><tspan y="-777.61" x="12.741">c</tspan></text>
</g>
<clipPath id="cp10">
<path transform="matrix(1,0,0,-1,276.19996,483.91993)" d="M -1 -1 L 22.946 -1 L 22.946 15.39 L -1 15.39 Z "/>
</clipPath>
<g clip-path="url(#cp10)">
<text xml:space="preserve" transform="matrix(1 0 -0 1 276.19996 1261.5299)" font-size="24.7871" font-family="CMMI12" font-style="italic"><tspan y="-781.328" x="0">a</tspan></text>
<text xml:space="preserve" transform="matrix(1 0 -0 1 276.19996 1261.5299)" font-size="20.6625" font-family="CMMI12" font-style="italic"><tspan y="-777.61" x="12.741">c</tspan></text>
</g>
<clipPath id="cp11">
<path transform="matrix(1,0,0,-1,280.19996,255.91992)" d="M -1 -1 L 22.946 -1 L 22.946 15.39 L -1 15.39 Z "/>
</clipPath>
<g clip-path="url(#cp11)">
<text xml:space="preserve" transform="matrix(1 0 -0 1 280.19996 1033.5299)" font-size="24.7871" font-family="CMMI12" font-style="italic"><tspan y="-781.328" x="0">a</tspan></text>
<text xml:space="preserve" transform="matrix(1 0 -0 1 280.19996 1033.5299)" font-size="20.6625" font-family="CMMI12" font-style="italic"><tspan y="-777.61" x="12.741">c</tspan></text>
</g>
<clipPath id="cp12">
<path transform="matrix(1,0,0,-1,9.01001,30.139893)" d="M -1 -1 L 96.371 -1 L 96.371 17.934 L -1 17.934 Z "/>
</clipPath>
<g clip-path="url(#cp12)">
<text xml:space="preserve" transform="matrix(1 0 -0 1 9.01001 805.2059)" font-size="24.7871" font-family="CMR17"><tspan y="-775.066" x="0 12.666209 28.23251 45.40997 61.64552 78.2033">SEARCH</tspan></text>
</g>
<clipPath id="cp13">
<path transform="matrix(1,0,0,-1,13.01001,530.1399)" d="M -1 -1 L 115.19 -1 L 115.19 17.934 L -1 17.934 Z "/>
</clipPath>
<g clip-path="url(#cp13)">
<text xml:space="preserve" transform="matrix(1 0 -0 1 13.01001 1305.2058)" font-size="24.7871" font-family="CMR17"><tspan y="-775.066" x="0 16.235552 34.082265 48.359636 62.637006 80.48372 97.66118">ROLLOUT</tspan></text>
</g>
<clipPath id="cp14">
<path transform="matrix(1,0,0,-1,13.01001,606.1399)" d="M -1 -1 L 96.371 -1 L 96.371 17.934 L -1 17.934 Z "/>
</clipPath>
<g clip-path="url(#cp14)">
<text xml:space="preserve" transform="matrix(1 0 -0 1 13.01001 1381.2058)" font-size="24.7871" font-family="CMR17"><tspan y="-775.066" x="0 12.666209 28.23251 45.40997 61.64552 78.2033">SEARCH</tspan></text>
</g>
<clipPath id="cp15">
<path transform="matrix(1,0,0,-1,276.19996,555.9199)" d="M -1 -1 L 22.946 -1 L 22.946 15.39 L -1 15.39 Z "/>
</clipPath>
<g clip-path="url(#cp15)">
<text xml:space="preserve" transform="matrix(1 0 -0 1 276.19996 1333.5299)" font-size="24.7871" font-family="CMMI12" font-style="italic"><tspan y="-781.328" x="0">a</tspan></text>
<text xml:space="preserve" transform="matrix(1 0 -0 1 276.19996 1333.5299)" font-size="20.6625" font-family="CMMI12" font-style="italic"><tspan y="-777.61" x="12.741">c</tspan></text>
</g>
</g>
</svg>
